<svg xmlns="http://www.w3.org/2000/svg" viewBox="0 0 1200 675" width="1200" height="675" role="img" aria-labelledby="title desc">
  <title id="title">Wärmetauscher: Brühwasser im Rohr durch den Dampfkessel</title>
  <desc id="desc">Schematischer Schnitt: Brühwasser läuft durch ein Rohr im Dampfkessel zur Brühgruppe, Dampf kommt aus demselben Kessel.</desc>
  <rect width="1200" height="675" fill="#FDF8F1"/>
  <g transform="translate(55.714 0) scale(1.133929)">
    <text x="40" y="46" font-family="Roboto, Arial, Helvetica, sans-serif" font-size="27" font-weight="700" fill="#4A2C2A">Wärmetauscher: ein Kessel, zwei Wege</text>
      <defs>
        <marker id="aw" markerWidth="8" markerHeight="8" refX="7" refY="4" orient="auto"><path d="M0,0 L8,4 L0,8 Z" fill="#3D6B7A"/></marker>
        <marker id="as" markerWidth="8" markerHeight="8" refX="7" refY="4" orient="auto"><path d="M0,0 L8,4 L0,8 Z" fill="#B8952F"/></marker>
      </defs>

      <rect x="48" y="210" width="88" height="170" rx="8" fill="#E8F1F4" stroke="#4A2C2A" stroke-width="2"/>
      <rect x="56" y="268" width="72" height="104" rx="4" fill="#3D6B7A"/>
      <text x="92" y="400" text-anchor="middle" font-family="Roboto, Arial, Helvetica, sans-serif" font-size="15" fill="#333">Wassertank</text>

      <line x1="136" y1="340" x2="188" y2="340" stroke="#3D6B7A" stroke-width="4" marker-end="url(#aw)"/>
      <circle cx="222" cy="340" r="26" fill="#FFFFFF" stroke="#4A2C2A" stroke-width="2"/>
      <text x="222" y="345" text-anchor="middle" font-family="Roboto, Arial, Helvetica, sans-serif" font-size="12" fill="#4A2C2A">Pumpe</text>

      <line x1="248" y1="340" x2="318" y2="340" stroke="#3D6B7A" stroke-width="4"/>
      <line x1="320" y1="340" x2="320" y2="400" stroke="#3D6B7A" stroke-width="4"/>
      <line x1="320" y1="400" x2="390" y2="400" stroke="#3D6B7A" stroke-width="4"/>

      <rect x="360" y="118" width="250" height="330" rx="18" fill="#F5E6D3" stroke="#4A2C2A" stroke-width="2.5"/>
      <rect x="360" y="118" width="250" height="86" rx="18" fill="#F3E2A8"/>
      <rect x="360" y="186" width="250" height="18" fill="#F3E2A8"/>
      <text x="485" y="154" text-anchor="middle" font-family="Roboto, Arial, Helvetica, sans-serif" font-size="16" font-weight="700" fill="#4A2C2A">Dampfkessel</text>

      <path d="M390,400 C390,250 430,250 430,320 C430,390 470,390 470,300 C470,210 530,210 530,320 C530,400 570,360 570,250" fill="none" stroke="#3D6B7A" stroke-width="10" stroke-linecap="round"/>
      <text x="485" y="430" text-anchor="middle" font-family="Roboto, Arial, Helvetica, sans-serif" font-size="15" font-weight="700" fill="#3D6B7A">Wärmetauscher</text>

      <line x1="570" y1="250" x2="668" y2="250" stroke="#3D6B7A" stroke-width="4" marker-end="url(#aw)"/>
      <rect x="680" y="198" width="92" height="72" rx="8" fill="#FFFFFF" stroke="#4A2C2A" stroke-width="2"/>
      <path d="M698,270 L754,270 L744,318 L708,318 Z" fill="#4A2C2A"/>
      <ellipse cx="726" cy="318" rx="22" ry="7" fill="#4A2C2A"/>
      <text x="726" y="188" text-anchor="middle" font-family="Roboto, Arial, Helvetica, sans-serif" font-size="15" fill="#333">Brühgruppe</text>
      <text x="726" y="348" text-anchor="middle" font-family="Roboto, Arial, Helvetica, sans-serif" font-size="14" fill="#3D6B7A">Espresso</text>

      <line x1="610" y1="150" x2="700" y2="150" stroke="#B8952F" stroke-width="4" marker-end="url(#as)"/>
      <line x1="708" y1="150" x2="708" y2="118" stroke="#B8952F" stroke-width="4"/>
      <line x1="708" y1="118" x2="790" y2="118" stroke="#B8952F" stroke-width="4"/>
      <line x1="790" y1="118" x2="830" y2="168" stroke="#B8952F" stroke-width="5" stroke-linecap="round"/>
      <text x="820" y="108" text-anchor="middle" font-family="Roboto, Arial, Helvetica, sans-serif" font-size="15" fill="#333">Dampflanze</text>
      <text x="848" y="190" font-family="Roboto, Arial, Helvetica, sans-serif" font-size="14" fill="#B8952F">Dampf</text>

      <rect x="40" y="500" width="16" height="16" fill="#3D6B7A"/>
      <text x="64" y="513" font-family="Roboto, Arial, Helvetica, sans-serif" font-size="14" fill="#333">Brühwasser durch das Rohr</text>
      <rect x="340" y="500" width="16" height="16" fill="#B8952F"/>
      <text x="364" y="513" font-family="Roboto, Arial, Helvetica, sans-serif" font-size="14" fill="#333">Dampf aus dem Kessel</text>
  </g>
  <a href="https://siebtraeger-vergleich.de/wissen/waermetauscher.html" aria-label="siebtraeger-vergleich.de">
    <text x="1170" y="645" text-anchor="end" font-family="Roboto, Arial, Helvetica, sans-serif" font-size="15" font-weight="600" fill="#4A2C2A" fill-opacity="0.7">siebtraeger-vergleich.de</text>
  </a>
</svg>
